<svg width="125" height="40" viewBox="0 0 125 40" fill="none" xmlns="http://www.w3.org/2000/svg">
<g clip-path="url(#clip0_251_62)">
<path d="M7.57521 20.8638C5.98369 20.8638 4.45891 20.6542 3.00088 20.2402C1.54284 19.8058 0.367174 19.2487 -0.520996 18.5689L1.03972 15.1189C1.89195 15.722 2.8982 16.2229 4.05334 16.6164C5.229 16.9947 6.40981 17.1838 7.60601 17.1838C8.51472 17.1838 9.24374 17.0969 9.79307 16.9282C10.3629 16.7391 10.7788 16.4835 11.0406 16.1667C11.3076 15.8447 11.4359 15.4767 11.4359 15.0627C11.4359 14.5362 11.2254 14.1222 10.8096 13.8207C10.3937 13.4987 9.84441 13.2431 9.16159 13.0591C8.47878 12.8495 7.72409 12.6655 6.88726 12.4918C6.07097 12.3027 5.24954 12.0778 4.41784 11.812C3.60155 11.5462 2.85713 11.2089 2.17432 10.7949C1.4915 10.3809 0.931906 9.83399 0.495522 9.15421C0.0796733 8.47444 -0.130817 7.60555 -0.130817 6.55266C-0.130817 5.4231 0.172085 4.39577 0.777888 3.47066C1.40423 2.53022 2.33347 1.78399 3.56048 1.2371C4.80802 0.66977 6.37387 0.388657 8.24775 0.388657C9.4953 0.388657 10.7274 0.54199 11.939 0.843545C13.1507 1.12466 14.2236 1.5591 15.1478 2.14688L13.7257 5.62755C12.7964 5.1011 11.8672 4.71266 10.9431 4.46733C10.0138 4.20155 9.10512 4.07377 8.21695 4.07377C7.32878 4.07377 6.59976 4.17599 6.0299 4.38555C5.46003 4.5951 5.05445 4.86599 4.80802 5.20333C4.56159 5.52533 4.43838 5.90355 4.43838 6.33288C4.43838 6.84399 4.64887 7.25799 5.06472 7.57999C5.48057 7.88155 6.0299 8.12688 6.71271 8.31599C7.39552 8.5051 8.14508 8.69421 8.95624 8.88333C9.78793 9.07244 10.6145 9.28711 11.4257 9.53244C12.2574 9.77777 13.0172 10.11 13.7 10.524C14.3828 10.938 14.9321 11.4849 15.348 12.1647C15.7844 12.8444 16 13.7031 16 14.7407C16 15.8549 15.6868 16.872 15.0605 17.7971C14.4341 18.7222 13.4998 19.4684 12.2471 20.0307C11.0303 20.5827 9.46963 20.8638 7.57521 20.8638ZM28.6757 20.8638C27.1406 20.8638 25.7134 20.6184 24.3837 20.1278C23.0745 19.6167 21.9399 18.9011 20.9748 17.976C20.0096 17.0509 19.2498 15.9673 18.7004 14.7253C18.1716 13.4833 17.9047 12.1135 17.9047 10.6262C17.9047 9.13888 18.1716 7.7691 18.7004 6.5271C19.2498 5.2851 20.0096 4.19644 20.9748 3.27644C21.9605 2.35132 23.1053 1.64599 24.4145 1.15532C25.7236 0.644212 27.1509 0.393769 28.7065 0.393769C30.4315 0.393769 31.9819 0.695327 33.3681 1.29844C34.7696 1.8811 35.9453 2.74999 36.8899 3.89999L33.9328 6.61399C33.25 5.84221 32.4953 5.26466 31.6585 4.88644C30.8268 4.49288 29.9181 4.29355 28.9324 4.29355C28.0031 4.29355 27.1509 4.44688 26.3757 4.74844C25.6004 5.04999 24.9279 5.48444 24.358 6.05177C23.7882 6.6191 23.3466 7.28866 23.0232 8.06044C22.7203 8.83221 22.5663 9.69088 22.5663 10.6364C22.5663 11.582 22.7203 12.4355 23.0232 13.2124C23.3466 13.9842 23.7882 14.6538 24.358 15.2211C24.9279 15.7884 25.6004 16.2229 26.3757 16.5244C27.1509 16.826 28.0031 16.9793 28.9324 16.9793C29.9181 16.9793 30.8268 16.7902 31.6585 16.412C32.4902 16.0184 33.25 15.4204 33.9328 14.6282L36.8899 17.3422C35.9453 18.4922 34.7696 19.3713 33.3681 19.9744C31.9819 20.5622 30.4161 20.8638 28.6757 20.8638ZM53.6317 0.725992H58.2368V20.5264H53.6317V0.725992ZM44.596 20.5264H39.9908V0.725992H44.596V20.5264ZM53.9705 12.41H44.252V8.53577H53.9705V12.41ZM72.6016 20.8638C71.0306 20.8638 69.5725 20.6082 68.2274 20.1022C66.9029 19.5911 65.7478 18.8756 64.762 17.9504C63.7969 17.0253 63.037 15.9418 62.4877 14.6998C61.9589 13.4578 61.692 12.0982 61.692 10.6262C61.692 9.15422 61.9589 7.79977 62.4877 6.55266C63.037 5.31066 63.802 4.22199 64.7877 3.30199C65.7734 2.38199 66.9286 1.66133 68.2531 1.15022C69.5777 0.639104 71.0203 0.388657 72.5707 0.388657C74.1417 0.388657 75.5844 0.644215 76.8884 1.15022C78.2129 1.66133 79.3578 2.37688 80.3281 3.30199C81.3138 4.2271 82.0788 5.31066 82.6281 6.55266C83.1774 7.77933 83.4495 9.13377 83.4495 10.6262C83.4495 12.0982 83.1774 13.4629 82.6281 14.7253C82.0788 15.9673 81.3138 17.056 80.3281 17.976C79.3629 18.8807 78.2181 19.586 76.8884 20.0971C75.5844 20.6133 74.152 20.8638 72.6016 20.8638ZM72.5707 16.964C73.4589 16.964 74.2752 16.8107 75.0145 16.5091C75.7743 16.2075 76.4366 15.7731 77.0013 15.2058C77.5712 14.6384 78.0076 13.9689 78.3105 13.1971C78.6339 12.4253 78.7931 11.5667 78.7931 10.6211C78.7931 9.67554 78.6339 8.82199 78.3105 8.0451C78.0076 7.27333 77.5712 6.60377 77.0013 6.03644C76.452 5.4691 75.8 5.03466 75.0402 4.7331C74.2803 4.43155 73.4589 4.27821 72.5707 4.27821C71.6826 4.27821 70.856 4.43155 70.1013 4.7331C69.362 5.03466 68.71 5.4691 68.1402 6.03644C67.5703 6.60377 67.1288 7.27333 66.8053 8.0451C66.5024 8.81688 66.3484 9.67554 66.3484 10.6211C66.3484 11.5462 66.5024 12.4049 66.8053 13.1971C67.1288 13.9689 67.5652 14.6384 68.1145 15.2058C68.6844 15.7731 69.3466 16.2075 70.1013 16.5091C70.856 16.8107 71.6826 16.964 72.5707 16.964ZM96.5719 20.8638C95.0009 20.8638 93.5428 20.6082 92.1978 20.1022C90.8732 19.5911 89.7181 18.8756 88.7324 17.9504C87.7672 17.0253 87.0074 15.9418 86.458 14.6998C85.9292 13.4578 85.6623 12.0982 85.6623 10.6262C85.6623 9.15422 85.9292 7.79977 86.458 6.55266C87.0074 5.31066 87.7723 4.22199 88.758 3.30199C89.7437 2.38199 90.8989 1.66133 92.2234 1.15022C93.548 0.639104 94.9906 0.388657 96.5411 0.388657C98.112 0.388657 99.5547 0.644215 100.859 1.15022C102.183 1.66133 103.328 2.37688 104.298 3.30199C105.284 4.2271 106.049 5.31066 106.598 6.55266C107.148 7.77933 107.42 9.13377 107.42 10.6262C107.42 12.0982 107.148 13.4629 106.598 14.7253C106.049 15.9673 105.284 17.056 104.298 17.976C103.333 18.8807 102.188 19.586 100.859 20.0971C99.5547 20.6133 98.1223 20.8638 96.5719 20.8638ZM96.5411 16.964C97.4292 16.964 98.2455 16.8107 98.9848 16.5091C99.7446 16.2075 100.407 15.7731 100.972 15.2058C101.542 14.6384 101.978 13.9689 102.281 13.1971C102.604 12.4253 102.763 11.5667 102.763 10.6211C102.763 9.67554 102.604 8.82199 102.281 8.0451C101.978 7.27333 101.542 6.60377 100.972 6.03644C100.422 5.4691 99.7703 5.03466 99.0105 4.7331C98.2507 4.43155 97.4292 4.27821 96.5411 4.27821C95.6529 4.27821 94.8263 4.43155 94.0716 4.7331C93.3324 5.03466 92.6804 5.4691 92.1105 6.03644C91.5406 6.60377 91.0991 7.27333 90.7757 8.0451C90.4728 8.81688 90.3187 9.67554 90.3187 10.6211C90.3187 11.5462 90.4728 12.4049 90.7757 13.1971C91.0991 13.9689 91.5355 14.6384 92.0848 15.2058C92.6547 15.7731 93.317 16.2075 94.0716 16.5091C94.8263 16.8107 95.6529 16.964 96.5411 16.964ZM110.885 20.5264V0.725992H115.49V16.7902H125.46V20.5213H110.885V20.5264Z" fill="url(#paint0_linear_251_62)"/>
<path d="M0.0950928 39.6113V24.2116H6.7692C8.4942 24.2116 9.82389 24.554 10.7685 25.244C11.7286 25.934 12.206 26.9102 12.206 28.1676C12.206 29.0058 12.0058 29.706 11.6105 30.2784C11.2254 30.8509 10.6967 31.2853 10.019 31.5767C9.3567 31.868 8.62768 32.0162 7.83192 32.0162L8.2067 31.4898C9.19241 31.4898 10.0395 31.6431 10.748 31.9498C11.4719 32.2411 12.0315 32.6909 12.4268 33.294C12.8221 33.8818 13.0223 34.6127 13.0223 35.4918C13.0223 36.7951 12.5346 37.8071 11.5643 38.5278C10.6042 39.2484 9.15648 39.6062 7.21072 39.6062H0.0950928V39.6113ZM1.73282 38.2722H7.19018C8.54554 38.2722 9.58259 38.0473 10.3065 37.5924C11.0304 37.1222 11.3897 36.3811 11.3897 35.3691C11.3897 34.3724 11.0304 33.6467 10.3065 33.1918C9.58259 32.7216 8.54554 32.4864 7.19018 32.4864H1.55313V31.1422H6.65625C7.89353 31.1422 8.85357 30.9071 9.53125 30.4369C10.2243 29.9667 10.5683 29.2716 10.5683 28.3464C10.5683 27.406 10.2243 26.7109 9.53125 26.256C8.85357 25.7858 7.89353 25.5507 6.65625 25.5507H1.72768V38.2722H1.73282ZM113.812 35.7831L113.745 33.8051L123.114 24.2116H124.993L118.165 31.3416L117.236 32.3331L113.812 35.7831ZM112.4 39.6113V24.2116H114.038V39.6113H112.4ZM123.515 39.6113L116.841 31.9549L117.944 30.7691L125.455 39.6113H123.515ZM100.715 39.6113H23.09C18.8185 39.6113 15.3531 36.1664 15.3531 31.9089C15.3531 27.6564 18.8134 24.2064 23.09 24.2064H100.715C104.986 24.2064 108.452 27.6513 108.452 31.9089C108.452 36.1664 104.986 39.6113 100.715 39.6113Z" fill="url(#paint1_linear_251_62)"/>
<path d="M23.5982 37.5822C26.7426 37.5822 29.2917 35.0445 29.2917 31.914C29.2917 28.7835 26.7426 26.2458 23.5982 26.2458C20.4537 26.2458 17.9047 28.7835 17.9047 31.914C17.9047 35.0445 20.4537 37.5822 23.5982 37.5822Z" fill="white"/>
</g>
<defs>
<linearGradient id="paint0_linear_251_62" x1="-2.06461" y1="13.2683" x2="126.449" y2="7.9641" gradientUnits="userSpaceOnUse">
<stop stop-color="#57BC79"/>
<stop offset="1" stop-color="#3EBB93"/>
</linearGradient>
<linearGradient id="paint1_linear_251_62" x1="-8.05599" y1="33.441" x2="128.126" y2="30.4775" gradientUnits="userSpaceOnUse">
<stop stop-color="#57BC79"/>
<stop offset="1" stop-color="#3EBB93"/>
</linearGradient>
<clipPath id="clip0_251_62">
<rect width="125" height="40" fill="white"/>
</clipPath>
</defs>
</svg>
